<?xml version="1.0" encoding="UTF-8"?>
<!DOCTYPE svg PUBLIC "-//W3C//DTD SVG 1.1//EN" "http://www.w3.org/Graphics/SVG/1.1/DTD/svg11.dtd">
<!-- Creator: CorelDRAW 2021 (64-Bit) -->
<svg xmlns="http://www.w3.org/2000/svg" xml:space="preserve" width="291.977mm" height="218.983mm" version="1.1" style="shape-rendering:geometricPrecision; text-rendering:geometricPrecision; image-rendering:optimizeQuality; fill-rule:evenodd; clip-rule:evenodd"
viewBox="0 0 2438.6 1828.95"
 xmlns:xlink="http://www.w3.org/1999/xlink"
 xmlns:xodm="http://www.corel.com/coreldraw/odm/2003">
 <defs>
  <style type="text/css">
   <![CDATA[
    .fil0 {fill:#FEFEFE;fill-rule:nonzero}
   ]]>
  </style>
 </defs>
 <g id="Capa_x0020_1">
  <metadata id="CorelCorpID_0Corel-Layer"/>
  <path id="envelope-regular.svg" class="fil0" d="M304.83 228.62c-41.91,0 -76.21,34.29 -76.21,76.21l0 105.26 821.6 674.43c98.59,80.97 240.05,80.97 338.64,0l821.12 -674.43 0 -105.26c0,-41.91 -34.29,-76.21 -76.21,-76.21l-1828.95 0zm-76.21 477.24l0 818.26c0,41.91 34.29,76.21 76.21,76.21l1828.95 0c41.91,0 76.21,-34.29 76.21,-76.21l0 -818.26 -676.33 555.35c-182.9,150.03 -446.28,150.03 -628.7,0l-676.33 -555.35zm-228.62 -401.04c0,-168.13 136.7,-304.82 304.83,-304.82l1828.95 0c168.13,0 304.83,136.7 304.83,304.82l0 1219.3c0,168.13 -136.7,304.83 -304.83,304.83l-1828.95 0c-168.13,0 -304.83,-136.7 -304.83,-304.83l0 -1219.3z"/>
 </g>
</svg>
