<?xml version="1.0" encoding="UTF-8"?>
<!DOCTYPE svg PUBLIC "-//W3C//DTD SVG 1.1//EN" "http://www.w3.org/Graphics/SVG/1.1/DTD/svg11.dtd">
<!-- Creator: CorelDRAW 2021 (64-Bit) -->
<svg xmlns="http://www.w3.org/2000/svg" xml:space="preserve" width="195.367mm" height="223.283mm" version="1.1" style="shape-rendering:geometricPrecision; text-rendering:geometricPrecision; image-rendering:optimizeQuality; fill-rule:evenodd; clip-rule:evenodd"
viewBox="0 0 1440.25 1646.04"
 xmlns:xlink="http://www.w3.org/1999/xlink"
 xmlns:xodm="http://www.corel.com/coreldraw/odm/2003">
 <defs>
  <style type="text/css">
   <![CDATA[
    .fil0 {fill:#FEFEFE;fill-rule:nonzero}
   ]]>
  </style>
 </defs>
 <g id="Capa_x0020_1">
  <metadata id="CorelCorpID_0Corel-Layer"/>
  <path id="tiktok.svg" class="fil0" d="M1440.23 675.02c-0.46,0 -1.12,0 -1.62,0 -141.02,0 -278.58,-44.2 -393.21,-126.26l0.03 574.76c-0.06,288.58 -234.14,522.53 -522.72,522.53 -288.64,0 -522.72,-234.08 -522.72,-522.72 0,-288.64 234.08,-522.72 522.72,-522.72 24,0 48.05,1.72 71.79,4.98l-0.02 289.04c-23.25,-7.31 -47.6,-11.06 -72,-11.06 -132.5,0 -239.96,107.46 -239.96,239.96 0,132.5 107.46,239.96 239.96,239.96 132.5,0 239.96,-107.46 239.96,-239.96 0,0 0,0 0,0l0 -1123.52 282.98 0c-0.01,1.06 -0.01,2.16 -0.01,3.21 0,22.79 2.05,45.67 5.99,68.08l-0 0.01c19.87,106.09 82.61,199.49 173.36,257.96 63.82,42.18 138.81,64.77 215.37,64.77 0,0 0.1,0 0.1,0l-0.01 280.99z"/>
 </g>
</svg>
