<?xml version="1.0" encoding="UTF-8"?>
<!DOCTYPE svg PUBLIC "-//W3C//DTD SVG 1.1//EN" "http://www.w3.org/Graphics/SVG/1.1/DTD/svg11.dtd">
<!-- Creator: CorelDRAW 2021 (64-Bit) -->
<svg xmlns="http://www.w3.org/2000/svg" xml:space="preserve" width="338.683mm" height="374.219mm" version="1.1" style="shape-rendering:geometricPrecision; text-rendering:geometricPrecision; image-rendering:optimizeQuality; fill-rule:evenodd; clip-rule:evenodd"
viewBox="0 0 4169.49 4606.97"
 xmlns:xlink="http://www.w3.org/1999/xlink"
 xmlns:xodm="http://www.corel.com/coreldraw/odm/2003">
 <defs>
  <style type="text/css">
   <![CDATA[
    .fil0 {fill:#FEFEFE;fill-rule:nonzero}
   ]]>
  </style>
 </defs>
 <g id="Capa_x0020_1">
  <metadata id="CorelCorpID_0Corel-Layer"/>
  <path id="twitch.svg" class="fil0" d="M3301 931.02l-347.59 0 0 987.08 347.59 0 0 -987.08zm-955.32 -4.23l-347.59 0 0 987.53 347.59 0 0 -987.53zm-1477.2 -926.79l-868.49 822.6 0 2961.77 1042.24 0 0 822.6 868.58 -822.6 695.09 0 1563.58 -1480.89 0 -2303.48 -3301 0zm2953.5 2139.27l-694.82 657.93 -695 0 -608.26 575.87 0 -575.87 -781.65 0 0 -2468.06 2779.75 0 0 1810.12z"/>
 </g>
</svg>
