<?xml version="1.0" encoding="UTF-8"?>
<!DOCTYPE svg PUBLIC "-//W3C//DTD SVG 1.1//EN" "http://www.w3.org/Graphics/SVG/1.1/DTD/svg11.dtd">
<!-- Creator: CorelDRAW 2021 (64-Bit) -->
<svg xmlns="http://www.w3.org/2000/svg" xml:space="preserve" width="406.282mm" height="285.667mm" version="1.1" style="shape-rendering:geometricPrecision; text-rendering:geometricPrecision; image-rendering:optimizeQuality; fill-rule:evenodd; clip-rule:evenodd"
viewBox="0 0 8835.43 6212.41"
 xmlns:xlink="http://www.w3.org/1999/xlink"
 xmlns:xodm="http://www.corel.com/coreldraw/odm/2003">
 <defs>
  <style type="text/css">
   <![CDATA[
    .fil0 {fill:#FEFEFE;fill-rule:nonzero}
   ]]>
  </style>
 </defs>
 <g id="Capa_x0020_1">
  <metadata id="CorelCorpID_0Corel-Layer"/>
  <path id="youtube.svg" class="fil0" d="M8650.81 972.04c-101.61,-382.61 -401.01,-683.95 -781.14,-786.21 -689.03,-185.82 -3451.95,-185.82 -3451.95,-185.82 0,0 -2762.9,0 -3451.95,185.82 -380.14,102.28 -679.53,403.6 -781.14,786.21 -184.63,693.51 -184.63,2140.45 -184.63,2140.45 0,0 0,1446.94 184.63,2140.45 101.61,382.61 401.01,671.39 781.14,773.65 689.05,185.82 3451.95,185.82 3451.95,185.82 0,0 2762.9,0 3451.95,-185.82 380.14,-102.26 679.53,-391.04 781.14,-773.65 184.62,-693.51 184.62,-2140.45 184.62,-2140.45 0,0 0,-1446.94 -184.62,-2140.45l0 0zm-5136.72 3454.16l0 -2627.43 2309.25 1313.75 -2309.25 1313.68z"/>
 </g>
</svg>
